<svg width="40" height="40" fill="none" xmlns="http://www.w3.org/2000/svg"><circle cx="20" cy="20" r="20" fill="#862633"/><path d="M25.572 7.5H14.428A1.92 1.92 0 0012.5 9.412V31.84c0 1.054.861 1.91 1.928 1.91h11.144a1.92 1.92 0 001.928-1.91V9.412A1.92 1.92 0 0025.572 7.5zM17.25 8.661h5.502c.139 0 .252.206.252.46 0 .255-.113.461-.252.461H17.25c-.14 0-.251-.206-.251-.46 0-.255.111-.46.251-.46zm2.751 23.202c-.679 0-1.23-.547-1.23-1.22 0-.674.551-1.22 1.23-1.22.677 0 1.229.546 1.229 1.22 0 .672-.552 1.22-1.229 1.22zm6.055-4.18H13.945V10.726h12.111v16.957z" fill="#FCF6EA"/></svg>