<svg width="65" height="64" viewBox="0 0 65 64" fill="none" xmlns="http://www.w3.org/2000/svg">
<path d="M32.4776 0C14.5413 0 0 14.3268 0 32C0 49.6732 14.5413 64 32.4776 64C50.4139 64 64.9552 49.6732 64.9552 32C64.9552 14.3268 50.4139 0 32.4776 0ZM48.952 35.4609C50.4657 36.9177 52.0672 38.2887 53.4261 39.8961C54.0281 40.6071 54.5956 41.3424 55.0275 42.1693C55.6442 43.3485 55.0873 44.6416 54.0162 44.7116L47.3625 44.7103C45.6441 44.8504 44.2765 44.1675 43.1236 43.01C42.2033 42.0874 41.3494 41.1021 40.463 40.1481C40.1008 39.7566 39.7194 39.388 39.2649 39.0979C38.3578 38.5165 37.5697 38.6946 37.0501 39.6283C36.5205 40.5783 36.3995 41.6311 36.349 42.6885C36.2766 44.2343 35.8035 44.6383 34.2292 44.711C30.8655 44.8661 27.6739 44.3633 24.7076 42.6924C22.0908 41.2186 20.0654 39.1385 18.3004 36.7835C14.8636 32.1925 12.2315 27.1537 9.86655 21.9702C9.33428 20.8028 9.72368 20.1782 11.0308 20.1539C13.2024 20.1127 15.374 20.1179 17.5456 20.152C18.4293 20.1657 19.0141 20.664 19.3537 21.4857C20.5272 24.3305 21.9658 27.0371 23.7686 29.5474C24.2491 30.2159 24.7395 30.8824 25.4379 31.3544C26.2087 31.8756 26.7961 31.7034 27.1596 30.8555C27.3922 30.3167 27.4925 29.7405 27.543 29.163C27.7158 27.1851 27.7364 25.2078 27.4374 23.2377C27.2513 22.0049 26.5476 21.2087 25.3003 20.9756C24.665 20.8571 24.7581 20.6253 25.0671 20.2679C25.6033 19.6498 26.1057 19.2674 27.1098 19.2674L34.6273 19.2661C35.8121 19.4953 36.0779 20.0191 36.2387 21.195L36.2453 29.4263C36.2314 29.8813 36.4773 31.23 37.3066 31.5279C37.9711 31.744 38.4096 31.2189 38.807 30.8045C40.6098 28.9195 41.8943 26.6947 43.0445 24.392C43.5522 23.3765 43.9901 22.3257 44.4154 21.2729C44.7317 20.4944 45.2235 20.1114 46.1152 20.1245L53.3543 20.133C53.5676 20.133 53.7843 20.135 53.9956 20.171C55.2156 20.3766 55.5498 20.8938 55.1724 22.0664C54.5783 23.9088 53.4241 25.4435 52.2958 26.9821C51.0864 28.6294 49.7966 30.2191 48.5991 31.8736C47.4987 33.3861 47.5858 34.1475 48.952 35.4609Z" fill="#231C1C"/>
</svg>
