<svg width="77" height="32" fill="none" xmlns="http://www.w3.org/2000/svg"><path d="M11.024 2h54.952L74 16l-8.024 14H11.024L3 16l8.024-14z" fill="#000" stroke="#286877" stroke-width="4"/><path d="M26.313 17.18h1.578v1.18h-1.578V21h-1.454v-2.64h-5.18v-.852l5.094-7.883h1.54v7.555zm-4.993 0h3.54v-5.578l-.172.312-3.368 5.266zm14.352-.094l-.906.945V21H33.32V9h1.446v7.258l.773-.93 2.633-2.781h1.758l-3.29 3.531L40.313 21h-1.695l-2.945-3.914zm8.516 1.797l1.968-6.336h1.547l-3.398 9.758c-.526 1.406-1.362 2.11-2.508 2.11l-.274-.024-.539-.102v-1.172l.391.031c.49 0 .87-.099 1.14-.296.277-.198.503-.56.68-1.086l.32-.86-3.015-8.36h1.578l2.11 6.337zm10.03 1.281c-.562.662-1.387.992-2.476.992-.9 0-1.588-.26-2.062-.781-.47-.526-.706-1.302-.711-2.328v-5.5h1.445v5.46c0 1.282.52 1.923 1.563 1.923 1.104 0 1.838-.412 2.203-1.235v-6.148h1.445V21H54.25l-.031-.836z" fill="#286877"/></svg>