<svg width="107" height="44" fill="none" xmlns="http://www.w3.org/2000/svg"><path d="M14.414 2h78.172L104 22 92.586 42H14.414L3 22 14.414 2z" fill="#000" stroke="#286877" stroke-width="4"/><path d="M35.969 24.27h2.367v1.77h-2.367V30h-2.18v-3.96h-7.77v-1.278l7.641-11.825h2.309V24.27zm-7.489 0h5.31v-8.368l-.259.47-5.05 7.898zm21.528-.141l-1.36 1.418V30H46.48V12h2.168v10.887l1.16-1.395 3.95-4.172h2.636l-4.933 5.297L56.969 30h-2.543l-4.418-5.871zm12.773 2.695l2.953-9.504h2.32l-5.097 14.637c-.789 2.11-2.043 3.164-3.762 3.164l-.41-.035-.808-.152v-1.758l.586.047c.734 0 1.304-.149 1.71-.446.414-.297.754-.84 1.02-1.629l.48-1.289L57.25 17.32h2.367l3.164 9.504zm15.047 1.922c-.844.992-2.082 1.488-3.715 1.488-1.351 0-2.382-.39-3.094-1.172-.703-.789-1.058-1.953-1.066-3.492v-8.25h2.168v8.192c0 1.922.781 2.883 2.344 2.883 1.656 0 2.758-.618 3.304-1.852V17.32h2.168V30h-2.062l-.047-1.254z" fill="#286877"/></svg>