<svg width="64" height="64" viewBox="0 0 64 64" fill="none" xmlns="http://www.w3.org/2000/svg">
<path d="M32.0002 0.132812C14.3272 0.132812 0 14.46 0 32.133C0 47.9837 11.5367 61.1106 26.6632 63.6526V38.8091H18.9438V29.869H26.6632V23.2768C26.6632 15.6281 31.3348 11.4599 38.159 11.4599C41.4274 11.4599 44.2362 11.7035 45.0516 11.8107V19.8057L40.3185 19.808C36.6081 19.808 35.8927 21.5709 35.8927 24.1586V29.8644H44.7462L43.5915 38.8045H35.8927V63.8664C51.7254 61.9394 64 48.478 64 32.1238C64 14.46 49.6728 0.132812 32.0002 0.132812Z" fill="#231C1C"/>
</svg>
