<svg width="64" height="64" viewBox="0 0 64 64" fill="none" xmlns="http://www.w3.org/2000/svg">
<path d="M38.125 32C38.125 35.3828 35.3828 38.125 32 38.125C28.6172 38.125 25.875 35.3828 25.875 32C25.875 28.6172 28.6172 25.875 32 25.875C35.3828 25.875 38.125 28.6172 38.125 32Z" fill="#231C1C"/>
<path d="M46.3242 21.1626C46.0298 20.3647 45.5601 19.6426 44.9497 19.0498C44.3569 18.4395 43.6353 17.9697 42.8369 17.6753C42.1895 17.4238 41.2168 17.1245 39.4253 17.043C37.4873 16.9546 36.9062 16.9355 32 16.9355C27.0933 16.9355 26.5122 16.9541 24.5747 17.0425C22.7832 17.1245 21.8101 17.4238 21.1631 17.6753C20.3647 17.9697 19.6426 18.4395 19.0503 19.0498C18.4399 19.6426 17.9702 20.3643 17.6753 21.1626C17.4238 21.8101 17.1245 22.7832 17.043 24.5747C16.9546 26.5122 16.9355 27.0933 16.9355 32C16.9355 36.9062 16.9546 37.4873 17.043 39.4253C17.1245 41.2168 17.4238 42.1895 17.6753 42.8369C17.9702 43.6353 18.4395 44.3569 19.0498 44.9497C19.6426 45.5601 20.3643 46.0298 21.1626 46.3242C21.8101 46.5762 22.7832 46.8755 24.5747 46.957C26.5122 47.0454 27.0928 47.064 31.9995 47.064C36.9067 47.064 37.4878 47.0454 39.4248 46.957C41.2163 46.8755 42.1895 46.5762 42.8369 46.3242C44.4395 45.7061 45.7061 44.4395 46.3242 42.8369C46.5757 42.1895 46.875 41.2168 46.957 39.4253C47.0454 37.4873 47.064 36.9062 47.064 32C47.064 27.0933 47.0454 26.5122 46.957 24.5747C46.8755 22.7832 46.5762 21.8101 46.3242 21.1626ZM32 41.4351C26.7886 41.4351 22.564 37.2109 22.564 31.9995C22.564 26.7881 26.7886 22.564 32 22.564C37.2109 22.564 41.4355 26.7881 41.4355 31.9995C41.4355 37.2109 37.2109 41.4351 32 41.4351ZM41.8086 24.396C40.5908 24.396 39.6035 23.4087 39.6035 22.1909C39.6035 20.9731 40.5908 19.9858 41.8086 19.9858C43.0264 19.9858 44.0137 20.9731 44.0137 22.1909C44.0132 23.4087 43.0264 24.396 41.8086 24.396Z" fill="#231C1C"/>
<path d="M32 0C14.3296 0 0 14.3296 0 32C0 49.6704 14.3296 64 32 64C49.6704 64 64 49.6704 64 32C64 14.3296 49.6704 0 32 0ZM50.2642 39.5757C50.1753 41.5317 49.8643 42.8672 49.4102 44.0361C48.4556 46.5044 46.5044 48.4556 44.0361 49.4102C42.8677 49.8643 41.5317 50.1748 39.5762 50.2642C37.6167 50.3535 36.9907 50.375 32.0005 50.375C27.0098 50.375 26.3843 50.3535 24.4243 50.2642C22.4688 50.1748 21.1328 49.8643 19.9644 49.4102C18.7378 48.9487 17.6274 48.2256 16.7095 47.2905C15.7749 46.373 15.0518 45.2622 14.5903 44.0361C14.1362 42.8677 13.8252 41.5317 13.7363 39.5762C13.646 37.6162 13.625 36.9902 13.625 32C13.625 27.0098 13.646 26.3838 13.7358 24.4243C13.8247 22.4683 14.1353 21.1328 14.5894 19.9639C15.0508 18.7378 15.7744 17.627 16.7095 16.7095C17.627 15.7744 18.7378 15.0513 19.9639 14.5898C21.1328 14.1357 22.4683 13.8252 24.4243 13.7358C26.3838 13.6465 27.0098 13.625 32 13.625C36.9902 13.625 37.6162 13.6465 39.5757 13.7363C41.5317 13.8252 42.8672 14.1357 44.0361 14.5894C45.2622 15.0508 46.373 15.7744 47.291 16.7095C48.2256 17.6274 48.9492 18.7378 49.4102 19.9639C49.8647 21.1328 50.1753 22.4683 50.2646 24.4243C50.354 26.3838 50.375 27.0098 50.375 32C50.375 36.9902 50.354 37.6162 50.2642 39.5757Z" fill="#231C1C"/>
</svg>
